<svg width="21" height="20" fill="none" xmlns="http://www.w3.org/2000/svg"><g clip-path="url(#a)"><path d="m19.368 7.485-8.865 8.892a.933.933 0 0 1-.344.224 1.143 1.143 0 0 1-.395.066 1.16 1.16 0 0 1-.396-.067.938.938 0 0 1-.343-.224L.133 7.486a1.253 1.253 0 0 1-.37-.924c0-.37.133-.686.396-.95.264-.264.572-.395.924-.395.352 0 .66.131.923.395l7.758 7.757 7.757-7.757c.246-.246.55-.37.91-.37.362 0 .674.133.937.397.264.264.396.571.396.923 0 .352-.132.66-.396.924Z" fill="#fff"/></g><defs><clipPath id="a"><path fill="#fff" transform="rotate(-90 10.02 9.976)" d="M0 0h20v20H0z"/></clipPath></defs></svg>