<svg width="30" height="30" fill="none" xmlns="http://www.w3.org/2000/svg"><g clip-path="url(#a)"><path d="M1.667 25c-.473 0-.869-.16-1.189-.48-.32-.32-.48-.716-.478-1.187 0-.472.16-.868.48-1.188.32-.32.716-.48 1.187-.478h26.666c.473 0 .869.16 1.189.48.32.32.48.715.478 1.186 0 .473-.16.869-.48 1.189-.32.32-.715.48-1.187.478H1.667Zm0-8.333c-.473 0-.869-.16-1.189-.48-.32-.32-.48-.716-.478-1.187 0-.472.16-.868.48-1.188.32-.32.716-.48 1.187-.479h26.666c.473 0 .869.16 1.189.48.32.32.48.716.478 1.187 0 .472-.16.868-.48 1.188-.32.32-.715.48-1.187.479H1.667Zm0-8.334c-.473 0-.869-.16-1.189-.48-.32-.32-.48-.715-.478-1.186 0-.473.16-.869.48-1.189.32-.32.716-.48 1.187-.478h26.666c.473 0 .869.16 1.189.48.32.32.48.716.478 1.187 0 .472-.16.868-.48 1.188-.32.32-.715.48-1.187.478H1.667Z" fill="url(#b)" style="mix-blend-mode:screen"/></g><defs><linearGradient id="b" x1="33.297" y1="-.918" x2=".625" y2="1.849" gradientUnits="userSpaceOnUse"><stop stop-color="#fff"/><stop offset=".524" stop-color="#D795FF"/><stop offset="1" stop-color="#7BC2FE"/></linearGradient><clipPath id="a"><path fill="#fff" d="M0 0h30v30H0z"/></clipPath></defs></svg>