<svg width="16" height="17" fill="none" xmlns="http://www.w3.org/2000/svg"><path d="m13.067 14.5-4.2-4.2a4.062 4.062 0 0 1-2.533.867c-1.212 0-2.237-.42-3.075-1.259C2.42 9.068 2 8.044 2 6.833c0-1.21.42-2.236 1.259-3.074C4.098 2.92 5.123 2.5 6.333 2.5c1.211 0 2.236.42 3.075 1.259s1.258 1.864 1.259 3.074A4.062 4.062 0 0 1 9.8 9.367l4.2 4.2-.933.933ZM6.333 9.833c.834 0 1.542-.291 2.126-.875a2.89 2.89 0 0 0 .874-2.125c0-.833-.291-1.541-.875-2.125a2.89 2.89 0 0 0-2.125-.875c-.833 0-1.541.292-2.125.876a2.89 2.89 0 0 0-.875 2.124c0 .834.292 1.542.876 2.126a2.89 2.89 0 0 0 2.124.874Z" fill="#fff"/></svg>