<svg xmlns="http://www.w3.org/2000/svg" width="20" height="16" fill="none"><path fill="#fff" d="M19.541 1.516c.14-.586 0-1.016-.66-1.016h-2.19c-.556 0-.81.372-.95.78 0 0-1.113 3.427-2.69 5.649-.51.646-.742.85-1.02.85-.138 0-.34-.204-.34-.79V1.516c0-.703-.16-1.016-.624-1.016h-3.44c-.347 0-.557.325-.557.635 0 .666.789.82.87 2.695v4.068c0 .89-.127 1.054-.406 1.054-.742 0-2.547-3.44-3.618-7.377C3.708.81 3.497.501 2.938.501H.751C.125.501 0 .873 0 1.281c0 .734.742 4.364 3.454 9.164C5.263 13.723 7.81 15.5 10.13 15.5c1.39 0 1.562-.395 1.562-1.075v-2.478c0-.789.132-.947.572-.947.324 0 .88.206 2.18 1.785 1.482 1.873 1.728 2.714 2.561 2.714h2.188c.625 0 .937-.395.758-1.174-.197-.775-.906-1.903-1.846-3.237-.51-.761-1.274-1.58-1.507-1.99-.324-.528-.23-.762 0-1.23.001 0 2.667-4.74 2.944-6.352Z"/></svg>